<svg width="34" height="31" viewBox="0 0 34 31" fill="none" xmlns="http://www.w3.org/2000/svg">
<path d="M16.6052 15.4894C15.6779 15.4894 15.1172 14.921 15.1604 14.0369L15.376 9.88974L11.4727 12.4159C11.2355 12.5843 10.9336 12.6685 10.5885 12.6685C9.89844 12.6685 9.22992 12.1422 9.22992 11.2581C9.22992 10.7107 9.4887 10.3529 10.0494 10.0371L14.1684 7.91091L10.0494 5.78471C9.4887 5.48999 9.22992 5.11107 9.22992 4.56373C9.22992 3.70062 9.89844 3.17434 10.5885 3.17434C10.9336 3.17434 11.2355 3.25854 11.4727 3.4059L15.376 5.86892L15.1604 1.55338C15.1172 0.669219 15.6779 0.10083 16.6052 0.10083C17.4894 0.10083 18.007 0.627116 17.9854 1.55338L17.7482 5.86892L21.6084 3.4059C21.8456 3.25854 22.1475 3.17434 22.4925 3.17434C23.1826 3.17434 23.8511 3.70062 23.8511 4.56373C23.8511 5.11107 23.5924 5.48999 23.0317 5.78471L18.9127 7.91091L23.0317 10.0371C23.5924 10.3529 23.8511 10.7107 23.8511 11.2581C23.8511 12.1422 23.1826 12.6685 22.4925 12.6685C22.1475 12.6685 21.8456 12.5843 21.6084 12.4159L17.7482 9.88974L17.9854 14.0369C18.0285 14.9631 17.4894 15.4894 16.6052 15.4894ZM7.37531 30.8991C6.448 30.8991 5.88731 30.3307 5.93044 29.4465L6.14609 25.2994L2.24278 27.8256C2.00557 27.994 1.70365 28.0782 1.35861 28.0782C0.668522 28.0782 0 27.5519 0 26.6677C0 26.1204 0.258783 25.7625 0.819479 25.4467L4.93844 23.3205L0.819479 21.1944C0.258783 20.8996 0 20.5207 0 19.9734C0 19.1103 0.668522 18.584 1.35861 18.584C1.70365 18.584 2.00557 18.6682 2.24278 18.8155L6.14609 21.2786L5.93044 16.963C5.88731 16.0789 6.448 15.5105 7.37531 15.5105C8.25948 15.5105 8.77705 16.0368 8.75548 16.963L8.51827 21.2786L12.3784 18.8155C12.6157 18.6682 12.9176 18.584 13.2626 18.584C13.9527 18.584 14.6212 19.1103 14.6212 19.9734C14.6212 20.5207 14.3624 20.8996 13.8017 21.1944L9.68279 23.3205L13.8017 25.4467C14.3624 25.7625 14.6212 26.1204 14.6212 26.6677C14.6212 27.5519 13.9527 28.0782 13.2626 28.0782C12.9176 28.0782 12.6157 27.994 12.3784 27.8256L8.51827 25.2994L8.75548 29.4465C8.79861 30.3728 8.25948 30.8991 7.37531 30.8991ZM25.9214 30.8991C24.9941 30.8991 24.4334 30.3307 24.4765 29.4465L24.6922 25.2994L20.7889 27.8256C20.5517 27.994 20.2498 28.0782 19.9047 28.0782C19.2146 28.0782 18.5461 27.5519 18.5461 26.6677C18.5461 26.1204 18.8049 25.7625 19.3656 25.4467L23.4845 23.3205L19.3656 21.1944C18.8049 20.8996 18.5461 20.5207 18.5461 19.9734C18.5461 19.1103 19.2146 18.584 19.9047 18.584C20.2498 18.584 20.5517 18.6682 20.7889 18.8155L24.6922 21.2786L24.4765 16.963C24.4334 16.0789 24.9941 15.5105 25.9214 15.5105C26.8056 15.5105 27.3231 16.0368 27.3016 16.963L27.0644 21.2786L30.9245 18.8155C31.1618 18.6682 31.4637 18.584 31.8087 18.584C32.4988 18.584 33.1673 19.1103 33.1673 19.9734C33.1673 20.5207 32.9085 20.8996 32.3478 21.1944L28.2289 23.3205L32.3478 25.4467C32.9085 25.7625 33.1673 26.1204 33.1673 26.6677C33.1673 27.5519 32.4988 28.0782 31.8087 28.0782C31.4637 28.0782 31.1618 27.994 30.9245 27.8256L27.0644 25.2994L27.3016 29.4465C27.3447 30.3728 26.8056 30.8991 25.9214 30.8991Z" fill="#F5F1E2"/>
</svg>
