<svg width="2284" height="462" viewBox="0 0 2284 462" fill="none" xmlns="http://www.w3.org/2000/svg">
<g style="mix-blend-mode:plus-darker" opacity="0.3">
<path d="M133.401 461.844C77.688 461.844 30.0225 444.511 4.02321 421.607L0.309015 316.99H18.2609C32.4987 396.226 70.2596 442.035 133.401 442.035C190.352 442.035 224.398 407.988 224.398 360.941C224.398 308.943 197.161 289.134 116.687 255.087C52.9267 228.469 5.26127 201.231 5.26127 130.043C5.26127 65.6633 53.5457 14.9028 135.258 14.9028C182.923 14.9028 227.494 28.5214 259.064 50.8066V141.804H241.112C231.827 71.2346 194.685 34.7118 135.258 34.7118C85.7354 34.7118 57.2599 66.2824 57.2599 108.377C57.2599 156.042 78.926 174.613 148.258 203.707C232.446 238.992 277.016 270.563 277.016 339.275C277.016 416.654 211.399 461.844 133.401 461.844ZM453.711 442.654C508.805 442.654 539.137 385.703 539.137 302.133C539.137 220.421 511.281 146.757 451.235 146.757C396.141 146.757 365.809 203.707 365.809 287.277C365.809 368.989 393.665 442.654 453.711 442.654ZM450.616 461.844C363.951 461.844 307 397.464 307 302.752C307 196.279 371.999 127.567 454.33 127.567C540.994 127.567 597.945 193.184 597.945 286.658C597.945 393.131 532.947 461.844 450.616 461.844ZM673.608 278.61C673.608 361.56 713.226 417.892 776.986 417.892C817.842 417.892 846.317 398.702 867.364 366.513L874.793 370.227C856.222 428.416 815.985 461.844 759.034 461.844C679.179 461.844 624.085 399.321 624.085 305.848C624.085 204.326 681.655 127.567 773.891 127.567C832.08 127.567 866.126 152.947 866.126 193.184C866.126 209.279 858.698 224.135 846.317 230.945H811.033C812.271 224.135 813.509 216.707 813.509 204.945C813.509 175.232 802.985 146.757 762.748 146.757C707.035 146.757 673.608 204.945 673.608 278.61ZM980.913 229.088V408.607C980.913 432.749 995.151 437.701 1036.01 439.558V455.653H882.487V439.558C915.296 437.701 925.2 432.749 925.2 408.607V186.994L884.963 165.327V158.518L975.961 127.567H983.389L980.913 215.469C1014.96 152.328 1029.82 127.567 1064.48 127.567C1075.63 127.567 1083.67 131.9 1088.01 137.471V183.898H1079.34C1041.58 183.898 1015.58 186.994 980.913 229.088ZM1205.25 425.321C1230.63 425.321 1249.2 413.559 1274.58 392.512V276.134L1200.3 306.467C1169.35 318.847 1151.39 336.18 1151.39 368.989C1151.39 402.417 1169.96 425.321 1205.25 425.321ZM1330.91 222.897V386.941C1330.91 414.178 1337.1 427.797 1355.05 427.797C1364.96 427.797 1374.24 424.083 1383.53 419.749L1386.63 429.035C1371.77 451.32 1350.72 461.844 1327.2 461.844C1296.87 461.844 1278.91 440.178 1275.82 405.512C1254.15 430.892 1219.49 461.844 1176.15 461.844C1127.87 461.844 1097.54 430.273 1097.54 384.465C1097.54 332.466 1136.54 310.8 1185.44 292.229L1274.58 258.801V216.707C1274.58 173.994 1258.49 143.042 1217.63 143.042C1182.35 143.042 1167.49 166.566 1167.49 198.136C1167.49 208.66 1168.73 217.945 1171.82 230.326L1139.01 235.278C1123.54 230.326 1114.87 218.564 1114.87 201.231C1114.87 154.804 1163.16 127.567 1225.68 127.567C1296.25 127.567 1330.91 157.899 1330.91 222.897ZM1467.83 56.9969V133.757H1556.36V157.28H1467.83V362.18C1467.83 407.988 1484.55 426.559 1519.21 426.559C1538.4 426.559 1551.4 420.988 1568.12 408.607L1573.69 416.035C1557.59 439.558 1530.36 461.844 1491.98 461.844C1447.41 461.844 1413.36 437.701 1413.36 371.465V157.28H1371.27V148.614C1406.55 129.424 1435.03 95.9959 1455.45 56.9969H1467.83ZM1672.83 127.567V408.607C1672.83 432.749 1682.73 437.701 1715.54 439.558V455.653H1574.4V439.558C1607.21 437.701 1617.11 432.749 1617.11 408.607V186.994L1576.88 165.327V158.518L1665.4 127.567H1672.83ZM1641.87 79.282C1620.21 79.282 1602.88 61.3301 1602.88 39.664C1602.88 17.9979 1620.21 0.0459681 1641.87 0.0459681C1664.16 0.0459681 1681.49 17.9979 1681.49 39.664C1681.49 61.3301 1664.16 79.282 1641.87 79.282ZM1776.62 278.61C1776.62 361.56 1816.24 417.892 1880 417.892C1920.85 417.892 1949.33 398.702 1970.38 366.513L1977.81 370.227C1959.23 428.416 1919 461.844 1862.05 461.844C1782.19 461.844 1727.1 399.321 1727.1 305.848C1727.1 204.326 1784.67 127.567 1876.9 127.567C1935.09 127.567 1969.14 152.947 1969.14 193.184C1969.14 209.279 1961.71 224.135 1949.33 230.945H1914.05C1915.28 224.135 1916.52 216.707 1916.52 204.945C1916.52 175.232 1906 146.757 1865.76 146.757C1810.05 146.757 1776.62 204.945 1776.62 278.61ZM2101.81 425.321C2127.19 425.321 2145.76 413.559 2171.14 392.512V276.134L2096.85 306.467C2065.9 318.847 2047.95 336.18 2047.95 368.989C2047.95 402.417 2066.52 425.321 2101.81 425.321ZM2227.47 222.897V386.941C2227.47 414.178 2233.66 427.797 2251.61 427.797C2261.52 427.797 2270.8 424.083 2280.09 419.749L2283.18 429.035C2268.32 451.32 2247.28 461.844 2223.75 461.844C2193.42 461.844 2175.47 440.178 2172.38 405.512C2150.71 430.892 2116.04 461.844 2072.71 461.844C2024.43 461.844 1994.09 430.273 1994.09 384.465C1994.09 332.466 2033.09 310.8 2082 292.229L2171.14 258.801V216.707C2171.14 173.994 2155.04 143.042 2114.19 143.042C2078.9 143.042 2064.04 166.566 2064.04 198.136C2064.04 208.66 2065.28 217.945 2068.38 230.326L2035.57 235.278C2020.09 230.326 2011.43 218.564 2011.43 201.231C2011.43 154.804 2059.71 127.567 2122.23 127.567C2192.8 127.567 2227.47 157.899 2227.47 222.897Z" fill="#CDC19F"/>
</g>
</svg>
